<?xml version="1.0" standalone="no"?>
<!DOCTYPE svg PUBLIC "-//W3C//DTD SVG 20010904//EN"
 "http://www.w3.org/TR/2001/REC-SVG-20010904/DTD/svg10.dtd">
<svg version="1.0" xmlns="http://www.w3.org/2000/svg"
 width="300.000000pt" height="171.000000pt" viewBox="0 0 300.000000 171.000000"
 preserveAspectRatio="xMidYMid meet">
<metadata>
Created by potrace 1.10, written by Peter Selinger 2001-2011
</metadata>
<g transform="translate(0.000000,171.000000) scale(0.100000,-0.100000)"
fill="#000000" stroke="none">
<path d="M1650 1544 c-102 -19 -264 -48 -360 -64 -99 -18 -181 -37 -190 -45
-11 -10 -19 -12 -27 -4 -7 7 -37 5 -99 -6 -82 -16 -91 -20 -122 -56 l-34 -39
-1 -212 -2 -212 -205 -36 -205 -36 -3 -279 -2 -280 60 -60 59 -59 498 88 c274
49 597 106 718 127 121 22 315 55 430 75 l210 36 37 41 38 42 0 114 c0 92 -3
118 -16 133 -16 16 -16 18 0 24 13 5 16 20 16 73 l0 67 -72 70 c-132 127 -112
117 -213 99 -49 -8 -96 -22 -106 -31 -13 -12 -22 -13 -37 -5 -12 6 -27 9 -34
7 -7 -2 -25 -7 -40 -10 l-28 -6 0 84 0 85 28 3 27 3 3 94 3 95 -58 58 c-31 32
-64 58 -73 57 -8 -1 -98 -16 -200 -35z m245 -54 c34 -35 39 -46 43 -98 4 -52
1 -61 -24 -91 -22 -26 -29 -46 -32 -92 -2 -32 1 -72 7 -90 13 -37 14 -35 -20
-44 -24 -6 -27 -3 -33 28 -10 53 -36 71 -91 63 -41 -7 -45 -5 -45 13 0 11 9
22 20 26 26 8 60 53 60 78 0 26 -38 67 -62 67 -11 0 -18 7 -18 20 0 14 9 21
38 26 73 13 111 58 92 109 -15 40 19 32 65 -15z m-95 -10 c0 -32 -2 -33 -95
-48 l-50 -7 -3 -63 -3 -63 46 6 c45 7 45 7 45 -23 0 -28 -3 -30 -45 -36 l-45
-7 0 -65 c0 -72 -4 -70 88 -50 l62 13 0 -32 0 -32 -77 -13 c-43 -6 -90 -14
-105 -17 l-28 -5 0 216 c0 119 1 216 3 217 10 2 194 37 200 38 4 0 7 -12 7
-29z m-242 -446 c-2 -1 -15 -5 -31 -9 l-27 -7 -1 108 -1 109 -16 -65 c-23 -92
-45 -106 -62 -37 -23 91 -30 84 -24 -25 5 -87 3 -108 -8 -108 -7 0 -23 -3 -35
-6 l-23 -6 0 221 c0 211 1 221 19 221 11 0 26 2 33 5 11 4 20 -18 38 -89 13
-52 26 -93 28 -91 2 2 14 48 26 102 22 94 24 98 52 103 l29 5 3 -214 c1 -118
1 -215 0 -217z m-250 152 l-3 -201 -27 -3 -28 -3 0 95 0 95 -37 -6 c-21 -3
-40 -7 -42 -9 -2 -2 -3 -46 -2 -97 l2 -94 -32 -7 c-18 -3 -33 -5 -33 -4 -6 18
12 408 19 421 7 11 35 22 80 30 109 21 106 26 103 -217z m-247 174 c28 -15 28
-90 0 -90 -11 0 -27 -3 -37 -7 -14 -5 -16 -2 -12 21 5 24 3 27 -16 22 -11 -3
-29 -6 -38 -6 -16 0 -18 -14 -18 -161 l0 -161 23 6 c12 3 27 6 34 6 7 0 13 24
15 65 2 53 0 65 -12 65 -10 0 -15 10 -15 30 0 25 5 30 30 36 17 3 38 8 48 10
15 5 17 -4 17 -101 0 -138 -7 -149 -101 -165 -102 -17 -99 -24 -99 200 0 174
1 188 20 205 32 29 126 43 161 25z m1193 -279 c10 -11 16 -31 14 -48 -2 -23
-8 -28 -35 -31 -26 -3 -32 0 -27 12 7 17 -13 21 -53 10 -21 -6 -23 -13 -23
-66 0 -52 2 -59 18 -54 62 17 84 17 103 0 16 -14 19 -31 19 -109 0 -111 -12
-127 -107 -145 -72 -14 -88 -7 -95 41 -5 33 -5 33 35 43 26 6 28 5 22 -14 -6
-19 -4 -20 22 -15 15 4 33 8 40 10 11 4 24 145 13 145 -3 0 -25 -5 -50 -11
-75 -17 -85 -5 -83 96 2 109 12 124 95 140 35 7 66 13 69 14 3 0 14 -8 23 -18z
m-764 -98 c0 -17 -11 -16 -36 2 -16 10 -20 21 -16 41 l5 26 23 -29 c13 -15 23
-34 24 -40z m532 50 c28 -25 26 -138 -3 -169 l-21 -22 21 -11 c19 -11 21 -21
21 -105 0 -76 -3 -95 -16 -100 -40 -15 -44 -9 -44 74 0 87 -9 100 -66 100
l-27 0 6 -100 c5 -75 3 -100 -6 -100 -7 0 -22 -3 -34 -6 l-22 -6 0 220 1 220
56 10 c86 14 114 14 134 -5z m379 -127 c-3 -73 -3 -83 5 -201 8 -136 -8 -170
-88 -189 -26 -6 -28 -4 -28 23 0 20 -9 37 -29 53 l-28 24 33 37 34 37 0 108
c0 103 -1 110 -25 132 l-25 24 25 26 c14 14 25 33 25 41 0 32 15 28 58 -15 43
-42 44 -46 43 -100z m-589 85 c-4 -28 -8 -30 -73 -41 l-69 -12 0 -65 c0 -56 2
-64 18 -60 73 20 74 20 70 -15 -3 -30 -6 -33 -43 -38 l-40 -5 -3 -68 c-3 -66
-2 -67 20 -62 57 13 113 25 119 25 3 0 6 -14 6 -30 0 -33 2 -32 -107 -50 -36
-6 -73 -13 -82 -16 -17 -5 -18 10 -18 214 l0 219 83 15 c124 23 124 23 119
-11z m-230 -108 c-2 -54 -9 -104 -15 -111 -8 -10 -7 -16 2 -21 8 -5 13 -40 14
-104 2 -101 0 -107 -45 -107 -18 0 -20 6 -17 80 4 86 -4 104 -42 98 -23 -3
-24 -7 -27 -99 l-3 -97 -29 -4 -30 -5 0 219 c0 181 2 218 14 218 8 0 21 3 30
6 14 5 16 -6 16 -91 0 -95 0 -96 23 -90 45 14 52 30 48 111 -3 81 3 94 44 94
19 0 20 -5 17 -97z m-224 -173 l-3 -205 -27 -3 -28 -3 0 96 c0 85 -2 96 -16
91 -9 -3 -27 -6 -40 -6 -24 0 -24 -1 -24 -100 0 -80 -3 -100 -14 -100 -8 0
-21 -3 -30 -6 -14 -5 -16 16 -16 198 0 238 -2 233 102 252 102 19 99 27 96
-214z m432 163 c0 -29 -3 -34 -12 -25 -7 7 -22 12 -34 12 -13 0 -26 5 -29 10
-11 18 15 40 46 40 27 0 29 -3 29 -37z m-650 -2 c0 -27 -3 -29 -47 -36 -97
-14 -93 -10 -93 -80 l0 -63 38 9 c52 12 52 12 52 -20 0 -31 -14 -41 -61 -41
l-29 0 0 -69 0 -69 63 14 c81 17 77 18 77 -16 0 -33 2 -32 -110 -50 -36 -6
-73 -13 -82 -16 -17 -5 -18 10 -18 214 l0 219 83 15 c124 23 127 23 127 -11z
m-257 -35 c26 -20 25 -146 -3 -171 -19 -17 -19 -18 0 -34 15 -13 19 -33 22
-108 3 -97 1 -103 -44 -103 -19 0 -20 5 -17 79 4 87 -4 101 -56 101 l-25 0 0
-100 c0 -55 -3 -100 -7 -100 -5 0 -18 -3 -30 -6 l-23 -6 0 220 0 220 58 10
c81 14 105 13 125 -2z m-225 -38 c15 -15 16 -174 1 -184 -8 -4 -8 -9 0 -17 6
-6 11 -47 11 -93 0 -108 -9 -119 -115 -139 -44 -8 -83 -15 -88 -15 -4 0 -6 98
-5 217 l3 218 65 11 c89 16 114 16 128 2z m1502 -19 c0 -17 -4 -20 -22 -15
-13 3 -29 6 -35 6 -7 0 -13 7 -13 15 0 10 11 15 35 15 29 0 35 -4 35 -21z
m-1042 -21 c4 -32 1 -33 -45 -16 -52 19 -40 49 17 45 19 -2 26 -8 28 -29z
m668 -64 c-3 -8 -19 -14 -35 -14 -51 0 -49 22 4 52 29 16 30 16 33 -3 2 -11 1
-27 -2 -35z m-666 -93 c0 -25 -20 -41 -52 -41 -38 0 -36 23 5 48 35 21 47 20
47 -7z m871 -56 c-9 -16 -16 -31 -17 -33 0 -1 -22 7 -49 19 l-47 21 32 33 32
33 32 -22 c32 -21 32 -21 17 -51z m167 32 c-19 -27 -21 -27 -44 -12 -13 8 -35
15 -50 15 -20 0 -24 3 -16 13 6 7 35 12 70 12 l60 1 -20 -29z m102 -7 c0 -5
-5 -10 -12 -10 -6 0 -3 -9 7 -20 15 -17 16 -20 3 -20 -9 0 -21 7 -28 15 -7 8
-23 15 -36 15 -39 0 -27 18 14 23 20 2 40 4 45 5 4 1 7 -2 7 -8z m-405 -44
c-11 -17 -14 -35 -9 -60 7 -39 -1 -46 -22 -18 -10 12 -16 14 -22 5 -4 -7 -25
-15 -47 -18 -31 -4 -45 -1 -64 15 -13 11 -22 22 -20 24 11 10 89 15 89 6 0 -5
-11 -10 -25 -10 -14 0 -25 -4 -25 -10 0 -11 49 -14 74 -4 23 9 20 23 -10 46
-35 28 -14 44 64 47 32 1 32 1 17 -23z m235 15 c0 -5 9 -13 20 -16 32 -10 23
-23 -20 -30 -30 -5 -45 -2 -64 12 -34 24 -32 31 7 36 17 2 38 5 45 5 6 1 12
-2 12 -7z m-571 -28 l22 -18 -35 -28 c-31 -24 -38 -26 -60 -15 -33 14 -33 22
-1 36 14 7 28 19 31 27 8 19 17 19 43 -2z m145 -16 c-10 -12 -20 -24 -21 -25
-1 -2 -17 2 -37 9 -47 17 -31 36 30 37 l46 1 -18 -22z m268 -4 c40 -16 41 -18
18 -23 -17 -4 -29 -1 -37 9 -11 14 -12 14 -13 -1 0 -22 -16 -23 -24 -2 -15 39
-6 42 56 17z m-605 -33 c11 0 11 -5 -3 -29 -16 -27 -19 -28 -38 -15 -11 8 -33
14 -49 14 l-28 0 27 34 28 34 24 -19 c14 -10 31 -19 39 -19z m284 -19 l24 -19
-28 -11 c-40 -15 -51 -14 -83 11 l-28 23 29 6 c51 11 62 10 86 -10z m-446 -31
c-19 -21 -19 -40 0 -67 19 -27 14 -30 -79 -45 l-76 -12 -35 42 c-20 22 -44 44
-55 47 -32 10 -12 25 33 25 44 0 184 24 194 33 3 3 11 3 19 0 13 -5 13 -8 -1
-23z m284 -1 c28 -23 27 -25 -24 -32 -30 -5 -45 -2 -62 13 -13 10 -23 21 -23
23 0 6 33 14 65 15 11 1 31 -8 44 -19z m-615 -60 c-24 -25 -29 -26 -48 -14
-18 12 -29 12 -64 2 -23 -7 -49 -20 -59 -29 -15 -16 -15 -19 1 -43 19 -29 14
-45 -15 -45 -14 0 -19 7 -19 28 0 16 -9 38 -21 51 -12 12 -19 23 -18 24 81 42
91 46 113 35 28 -12 58 1 82 37 l16 25 30 -21 29 -21 -27 -29z m441 38 c17
-13 16 -14 -14 -20 -18 -4 -30 -11 -26 -17 13 -20 -22 -9 -44 14 l-23 24 28 5
c53 8 60 7 79 -6z m64 -20 c14 -17 4 -27 -26 -27 -21 0 -22 2 -11 20 15 24 22
25 37 7z m-424 -36 c-16 -7 -13 -9 18 -15 49 -9 47 -23 -4 -28 -31 -3 -48 1
-67 16 -23 18 -24 20 -6 27 10 4 33 8 49 8 25 0 26 -2 10 -8z m-414 -21 c19 0
19 -1 2 -24 -14 -18 -22 -22 -35 -15 -23 12 -25 54 -2 45 9 -3 24 -6 35 -6z
m309 -37 c0 -2 -18 0 -40 3 -26 4 -40 3 -38 -4 6 -19 -7 -17 -37 6 l-29 23 43
-7 c23 -4 41 -3 40 2 -4 22 3 23 31 2 17 -12 30 -23 30 -25z m-213 0 c-18 -5
-18 -6 -1 -24 15 -16 15 -19 2 -19 -9 0 -21 7 -28 15 -7 8 -24 15 -39 15 -20
0 -23 2 -11 10 8 5 33 9 55 9 22 -1 32 -3 22 -6z"/>
<path d="M1196 1341 c-28 -6 -29 -8 -28 -66 0 -65 -2 -63 60 -50 20 5 22 11
22 65 0 63 0 63 -54 51z"/>
<path d="M1918 983 c-27 -4 -28 -7 -28 -64 0 -55 2 -59 23 -59 37 0 67 40 67
88 0 45 1 44 -62 35z"/>
<path d="M1248 863 c-27 -4 -28 -6 -28 -68 0 -47 3 -63 13 -61 6 3 24 7 40 10
26 6 27 9 27 66 0 42 -4 60 -12 59 -7 -1 -25 -4 -40 -6z"/>
<path d="M788 783 c-27 -4 -28 -7 -28 -64 0 -55 1 -59 23 -59 35 0 59 32 61
82 1 46 -4 49 -56 41z"/>
<path d="M556 741 c-28 -6 -29 -8 -30 -69 -2 -59 -1 -63 18 -58 12 3 28 6 38
6 13 0 17 12 20 65 2 39 -1 65 -7 64 -5 -1 -23 -4 -39 -8z"/>
<path d="M545 553 c-18 -3 -20 -12 -20 -69 0 -61 1 -65 20 -60 11 3 27 6 37 6
13 0 17 12 20 65 3 70 3 70 -57 58z"/>
<path d="M1375 400 c3 -5 17 -10 31 -10 13 0 24 5 24 10 0 6 -14 10 -31 10
-17 0 -28 -4 -24 -10z"/>
</g>
</svg>
